<!-- icon666.com - MILLIONS vector ICONS FREE --><svg id="_x33_0" enable-background="new 0 0 62 62" viewBox="0 0 62 62" xmlns="http://www.w3.org/2000/svg"><g><g><g><path d="m60 49h-10c-.552 0-1-.448-1-1v-10c0-.552.448-1 1-1h10c.552 0 1 .448 1 1v10c0 .552-.448 1-1 1z" fill="#d3a06c"></path></g><g><path d="m60 61h-10c-.552 0-1-.448-1-1v-10c0-.552.448-1 1-1h10c.552 0 1 .448 1 1v10c0 .552-.448 1-1 1z" fill="#d3a06c"></path></g><g><path d="m15 21v10h9c.55 0 1 .45 1 1v3l6 12v9.999l11.1-.009h4.9v-35.99z" fill="#aab2bd"></path></g><g><path d="m42 41h-10c-.552 0-1-.448-1-1v-10c0-.552.448-1 1-1h10c.552 0 1 .448 1 1v10c0 .552-.448 1-1 1z" fill="#d3a06c"></path></g><g><path d="m42 53h-10c-.552 0-1-.448-1-1v-10c0-.552.448-1 1-1h10c.552 0 1 .448 1 1v10c0 .552-.448 1-1 1z" fill="#d3a06c"></path></g><g><path d="m49 38v10c0 .55.45 1 1 1-.55 0-1 .45-1 1h-2v-29h-32v10h-6v-17.92c1.49-1.26 3.08-2.4 4.76-3.39 5.14-3.02 11.07-4.69 17.24-4.69 8.19 0 15.95 2.95 22 8.08v23.92h-3c-.55 0-1 .45-1 1z" fill="#e6e9ed"></path></g><g><path d="m61 15v8l-.29-.52c-2.01-3.63-4.64-6.8-7.71-9.4-6.05-5.13-13.81-8.08-22-8.08-6.17 0-12.1 1.67-17.24 4.69-1.68.99-3.27 2.13-4.76 3.39-3.07 2.6-5.7 5.77-7.71 9.4l-.29.52v-8l.29-.33c7.43-8.68 18.29-13.67 29.71-13.67 5.71 0 11.28 1.25 16.35 3.58s9.65 5.75 13.36 10.09z" fill="#ff826e"></path></g><g><path d="m31 9c-4.42 0-8 3.58-8 8h16c0-4.42-3.58-8-8-8z" fill="#69d6f4"></path></g><g><path d="m35 17h-8c0-2.21 1.79-4 4-4s4 1.79 4 4z" fill="#4fc1e9"></path></g><g><path d="m25 32v3h-18v-3c0-.55.45-1 1-1h1 6 9c.55 0 1 .45 1 1z" fill="#ff826e"></path></g><g><path d="m30.66 53c-.6-1.7-1.96-3.06-3.66-3.65v-2.35h4v5 1z" fill="#ff826e"></path></g><g><path d="m16.43 46.43 2.57 8.57h-6c0-3.31-2.69-6-6-6v-4h7.51c.89 0 1.66.58 1.92 1.43z" fill="#fc6e51"></path></g><g><path d="m7 45v4c-3.31 0-6 2.69-6 6v-11c0-.55.45-1 1-1h5z" fill="#ccd1d9"></path></g><g><path d="m31 55c0-.7-.12-1.37-.34-2h.34 1 10c.55 0 1 .45 1 1v2c0 .52-.4.94-.9.99-.03.01-.07.01-.1.01h-11.34c.22-.63.34-1.3.34-2z" fill="#ccd1d9"></path></g><g><path d="m53 49h4v4h-4z" fill="#b27946"></path></g><g><path d="m53 37h4v4h-4z" fill="#b27946"></path></g><g><path d="m35 41h4v4h-4z" fill="#b27946"></path></g><g><path d="m35 29h4v4h-4z" fill="#b27946"></path></g><g><path d="m30.66 53c.22.63.34 1.3.34 2s-.12 1.37-.34 2c-.82 2.33-3.05 4-5.66 4-3.31 0-6-2.69-6-6s2.69-6 6-6c.7 0 1.37.12 2 .35 1.7.59 3.06 1.95 3.66 3.65z" fill="#969faa"></path></g><g><path d="m7 49c3.31 0 6 2.69 6 6s-2.69 6-6 6-6-2.69-6-6 2.69-6 6-6z" fill="#969faa"></path></g><g><circle cx="25" cy="55" fill="#ccd1d9" r="2"></circle></g><g><circle cx="7" cy="55" fill="#ccd1d9" r="2"></circle></g></g><g><g><path d="" fill="none" stroke="#000" stroke-miterlimit="10" stroke-width="2"></path></g><g><path d="m22 17v1h18v-1c0-4.963-4.037-9-9-9s-9 4.037-9 9zm8-4.899c-.637.13-1.229.384-1.753.732l-1.435-1.435c.916-.686 2.005-1.149 3.188-1.319zm1 1.899c1.302 0 2.402.839 2.816 2h-5.631c.413-1.161 1.513-2 2.815-2zm2.753-1.167c-.524-.348-1.116-.602-1.753-.732v-2.022c1.183.17 2.272.633 3.188 1.319zm-8.353-.018 1.433 1.433c-.348.524-.602 1.116-.732 1.753h-2.03c.17-1.185.643-2.27 1.329-3.186zm10.499 3.185c-.13-.637-.384-1.229-.732-1.753l1.433-1.433c.687.916 1.159 2.001 1.329 3.185h-2.03z"></path><path d="m7 52c-1.654 0-3 1.346-3 3s1.346 3 3 3 3-1.346 3-3-1.346-3-3-3zm0 4c-.552 0-1-.448-1-1s.448-1 1-1 1 .448 1 1-.448 1-1 1z"></path><path d="m25 52c-1.654 0-3 1.346-3 3s1.346 3 3 3 3-1.346 3-3-1.346-3-3-3zm0 4c-.552 0-1-.448-1-1s.448-1 1-1 1 .448 1 1-.448 1-1 1z"></path><path d="m62 38c0-1.103-.897-2-2-2h-10c-1.103 0-2 .897-2 2v10c0 .366.106.705.278 1-.172.295-.278.634-.278 1v10c0 1.103.897 2 2 2h10c1.103 0 2-.897 2-2v-10c0-.366-.106-.705-.278-1 .172-.295.278-.634.278-1zm-8 0h2v2h-2zm-4 0h2v4h6v-4h2v10h-10zm4 12h2v2h-2zm-4 10v-10h2v4h6v-4h2l.002 10z"></path><path d="m48 34v-14h-34v10h-4v-16.428c5.821-4.806 13.21-7.572 21-7.572s15.179 2.766 21 7.572v20.428h2v-18.636c2.273 2.211 4.255 4.755 5.839 7.605l.287.517 1.748-.971-.287-.517c-6.167-11.102-17.888-17.998-30.587-17.998s-24.42 6.896-30.587 17.998l-.287.517 1.748.971.287-.517c1.584-2.85 3.566-5.394 5.839-7.605v14.636c-1.103 0-2 .897-2 2v10h-4c-1.103 0-2 .897-2 2v11c0 3.859 3.141 7 7 7 3.519 0 6.432-2.614 6.92-6h4.16c.488 3.386 3.401 6 6.92 6 2.785 0 5.188-1.639 6.315-4h10.685c1.103 0 2-.897 2-2v-2c0-.366-.106-.705-.278-1 .172-.295.278-.634.278-1v-10c0-.366-.106-.705-.278-1 .172-.295.278-.634.278-1v-10c0-1.103-.897-2-2-2h-10c-1.103 0-2 .897-2 2v12.764l-4-8v-2.764c0-1.103-.897-2-2-2h-8v-8h30v12zm-40 14.08v-2.08h6.512c.445 0 .83.286.958.713l2.186 7.287h-3.736c-.441-3.059-2.861-5.479-5.92-5.92zm-6-4.08h4v4.08c-1.556.224-2.949.957-4 2.031zm5 16c-2.757 0-5-2.243-5-5s2.243-5 5-5 5 2.243 5 5-2.243 5-5 5zm18 0c-2.757 0-5-2.243-5-5s2.243-5 5-5 5 2.243 5 5-2.243 5-5 5zm5-9.889c-.574-.587-1.251-1.068-2-1.426v-.685h2zm12 5.889h-10.08c.047-.328.08-.66.08-1s-.033-.672-.08-1h10.08zm-6-26h2v2h-2zm-4 0h2v4h6v-4h2v10h-10zm4 12h2v2h-2zm-2 0v4h6v-4h2v10h-10v-10zm-9.618-6 5 10h-1.968l-2-2 1.293-1.293-1.414-1.414-4 4 1.414 1.414 1.293-1.293 2 2v.666c-.328-.047-.66-.08-1-.08-2.562 0-4.801 1.389-6.021 3.448l-1.593-5.31c-.384-1.279-1.539-2.138-2.874-2.138h-6.512v-8zm-.382-2h-16v-2h16z"></path><path d="m2.046 15.317c7.253-8.463 17.807-13.317 28.954-13.317s21.701 4.854 28.955 13.318l.286.333 1.518-1.303-.285-.332c-7.635-8.908-18.742-14.016-30.474-14.016s-22.839 5.108-30.473 14.016l-.286.333 1.518 1.303z"></path></g></g></g></svg>